# xmcd
#
# Track frame offsets:
# 183
# 13075
# 25888
# 39350
# 50048
# 63720
# 76140
# 89270
# 101953
# 115195
# 129878
# 142880
# 157135
# 169033
# 181225
# 194818
#
# Disc length: 2779 seconds
#
#
# Revision: 0
# Processed by: cddbd v1.5.2PL0 Copyright (c) Steve Scherf et al.
# Submitted via: FreeRIP 2.951 
#
DISCID=da0ad910
DTITLE=Various Artist - Hoochie Coochie Men
DYEAR=1900
DGENRE=Blues
TTITLE0=Hoochie Coochie Man
TTITLE1=Killing Floor
TTITLE2=Teenage Beat
TTITLE3=Fattening Frogs For Snakes
TTITLE4=One Bourbon, One Scotch, One Beer
TTITLE5=Poor Man's Song
TTITLE6=Let Me Love You Baby
TTITLE7=The Walk
TTITLE8=Won't Be Hanging Around
TTITLE9=I've Been Down So Long
TTITLE10=She Loves Another Man
TTITLE11=Reconsider Baby
TTITLE12=Reverend Bounce
TTITLE13=The Sun Is Shining
TTITLE14=Young Fashioned Ways
TTITLE15=You Better Watch Yourself
EXTD=
EXTT0=
EXTT1=
EXTT2=
EXTT3=
EXTT4=
EXTT5=
EXTT6=
EXTT7=
EXTT8=
EXTT9=
EXTT10=
EXTT11=
EXTT12=
EXTT13=
EXTT14=
EXTT15=
PLAYORDER=
